<svg width="24" height="25" viewBox="0 0 24 25" fill="none" xmlns="http://www.w3.org/2000/svg">
<path d="M19.4062 10.6465L18.0703 11.9824L15.6094 9.50977C15.3125 9.20508 15.0078 8.88477 14.6953 8.54883C14.375 8.20508 14.0586 7.85742 13.7461 7.50586C13.4336 7.14648 13.1328 6.79883 12.8437 6.46289C12.5469 6.12695 12.2695 5.80664 12.0117 5.50195L12.5039 5.5957C12.5352 5.91602 12.5703 6.24023 12.6094 6.56836C12.6406 6.88867 12.668 7.21289 12.6914 7.54102C12.707 7.86133 12.7148 8.18555 12.7148 8.51367L12.7148 20.5371L10.8164 20.5371L10.8164 8.51367C10.8164 8.18555 10.8281 7.86133 10.8516 7.54102C10.8672 7.21289 10.8906 6.88867 10.9219 6.56836C10.9531 6.24023 10.9883 5.91602 11.0273 5.5957L11.5195 5.50195C11.1758 5.90039 10.8008 6.33398 10.3945 6.80273C9.98828 7.27148 9.57422 7.74023 9.15234 8.20898C8.73047 8.66992 8.32031 9.10352 7.92187 9.50977L5.46094 11.9824L4.125 10.6465L11.7656 3.00586L19.4062 10.6465Z" fill="#161515"/>
</svg>
