<svg width="24" height="25" viewBox="0 0 24 25" fill="none" xmlns="http://www.w3.org/2000/svg">
<path d="M17.9639 16.8786H16.0746L16.0829 13.3901C16.0884 12.9647 16.0994 12.5228 16.116 12.0642C16.1326 11.5947 16.1547 11.1251 16.1823 10.6555C16.2154 10.1805 16.2486 9.72195 16.2817 9.28001C16.3094 8.83254 16.3397 8.40993 16.3729 8.01219L16.6546 8.42651C16.4502 8.6751 16.2458 8.92922 16.0414 9.18886C15.837 9.43745 15.6271 9.68604 15.4117 9.93463C15.1962 10.1722 14.9725 10.407 14.7405 10.639L6.23861 19.1408L4.89621 17.7984L13.3981 9.29658C13.6301 9.06456 13.8676 8.84359 14.1107 8.63367C14.3538 8.4127 14.5996 8.20001 14.8482 7.99561C15.1023 7.78569 15.3564 7.58129 15.6105 7.38242L16.0249 7.66416C15.5001 7.70283 14.9283 7.74426 14.3096 7.78845C13.6909 7.83265 13.0666 7.87132 12.4368 7.90446C11.8126 7.93208 11.216 7.94866 10.647 7.95418L7.1584 7.96247V6.07317H17.9639V16.8786Z" fill="#B5B5B5"/>
</svg>
