<?xml version="1.0" encoding="UTF-8"?> <svg xmlns="http://www.w3.org/2000/svg" width="180" height="181" viewBox="0 0 180 181" fill="none"> <path d="M174.895 101.232C174.433 99.323 173.303 97.9469 171.956 97.4634C170.788 97.0419 168.696 96.9055 166.95 96.8807C165.936 96.8683 165.371 95.7154 166.026 94.9591C167.784 92.9012 169.761 89.5911 167.438 86.8389C165.192 84.161 161.457 83.8511 157.735 84.7561C156.554 85.0412 155.72 83.6651 156.554 82.8097C158.915 80.3922 161.495 77.2681 162.984 73.9332C163.433 72.9414 163.613 71.8629 163.472 70.7843C163.433 70.5115 163.382 70.214 163.318 69.9165C162.522 66.5196 158.954 64.4492 155.463 65.3046C153.384 65.8129 150.239 66.7675 146.145 68.5652C144.72 69.1974 143.668 67.1766 145.054 66.4576C145.105 66.4328 145.144 66.408 145.195 66.3832C147.313 65.2923 148.879 64.4244 149.867 63.8542C150.74 63.3459 151.266 62.4161 151.227 61.4243C151.163 59.9366 150.663 57.767 148.506 56.2422C148.031 55.895 147.441 55.7339 146.838 55.7463C144.848 55.7835 139.868 56.3042 135.055 60.1225C131.988 62.5524 126.995 65.9121 121.912 68.7139C120.565 69.4578 119.332 67.5982 120.603 66.7303C123.427 64.7964 126.34 62.5648 128.856 60.1225C137.314 51.9403 140.446 45.3821 140.972 41.043C141.049 40.3736 140.998 39.2082 140.921 38.5387C140.793 37.2494 140.33 35.1047 138.777 33.3071C137.905 32.2905 136.583 31.7078 135.209 31.7326C133.04 31.7698 129.113 32.0921 124.338 33.6914C119.653 35.2658 115.315 38.5016 112.787 40.6339C112.017 41.291 110.797 40.7827 110.772 39.7785C110.682 36.1461 109.077 30.3565 99.8234 30.1333C92.7642 29.9722 86.6034 34.1749 82.7786 37.5965C81.8673 38.4148 80.417 37.547 80.7763 36.394C81.9058 32.774 82.9198 27.9142 82.124 23.6495C81.3411 19.3848 77.1569 16.521 72.7288 17.0665C67.2868 17.736 58.6746 19.9799 51.0763 27.6787C40.6543 38.2288 36.9065 47.3657 36.0594 49.7212C35.9182 50.1055 35.5845 50.3906 35.1738 50.4898C33.7363 50.7997 30.4762 51.1964 29.3853 48.6798C28.2044 45.94 29.0002 38.6379 34.7246 32.8112C35.6102 31.9062 34.6604 30.4557 33.4411 30.8772C29.8858 32.1045 25.1112 34.4476 20.9399 38.8611C16.0113 44.0804 16.7557 51.3948 17.1407 53.6883C17.2177 54.1222 17.038 54.5561 16.6658 54.8165C14.8048 56.143 9.28574 60.606 8.82369 66.9411C8.33596 73.5489 11.8527 76.0656 17.1921 77.1565C18.1804 77.3549 18.5012 78.5698 17.7311 79.2021C15.2925 81.2352 11.1725 85.0041 8.09209 89.6903C6.71876 91.773 6 94.2153 6 96.6824V98.3064C6 100.116 7.18081 101.753 8.96487 102.323C11.0056 102.98 14.086 103.563 18.0777 103.216C19.1815 103.117 19.8361 104.381 19.0916 105.175C17.6541 106.699 15.9856 108.807 15.0101 111.1C13.2517 115.229 13.7266 120.659 18.0392 122.568C18.7836 122.89 18.9633 123.82 18.4371 124.415C17.0766 125.915 15.0615 128.68 14.163 132.647C12.9565 138.028 15.0615 143.805 21.5559 145.516C22.5571 145.776 23.3913 144.772 22.955 143.854C22.3902 142.677 22.3902 141.028 24.3026 138.92C27.3573 135.573 31.9009 136.416 33.8261 136.974C34.3395 137.123 34.6989 137.581 34.6989 138.102C34.6989 139.701 35.0711 143.396 37.8306 147.09C41.4886 151.999 46.2889 152.545 51.3587 152.545C55.6584 152.545 62.9999 148.826 67.1841 141.052C67.7104 140.073 69.1992 140.271 69.4559 141.35C69.841 143.011 70.5726 144.871 71.9202 146.557C73.961 149.086 76.374 150.239 78.2222 150.76C79.249 151.045 80.1346 150.016 79.6469 149.086C79.0308 147.908 78.5559 146.284 78.9538 144.375C79.8009 140.284 81.7775 137.284 86.5649 135.92C89.1961 135.176 92.3406 135.164 94.6381 135.313C95.7162 135.375 96.3323 134.172 95.6392 133.379C93.0594 130.428 89.0035 124.886 88.2463 118.477C87.1168 108.931 89.2346 101.034 97.8211 100.079C104.675 99.323 110.245 104.877 112.337 116.345C112.427 116.828 112.825 117.212 113.326 117.299C115.559 117.683 121.643 118.254 124.762 114.051C125.301 113.32 126.469 113.444 126.854 114.262C127.752 116.134 129.523 118.465 132.899 119.295C133.656 119.481 134.375 118.936 134.401 118.179C134.478 116.444 135.325 113.555 136.018 111.41C136.326 110.468 137.609 110.295 138.187 111.1C138.675 111.782 138.123 111.348 139.008 111.981C139.368 112.241 139.573 112.663 139.509 113.096C139.047 116.481 138.957 121.837 138.598 127.366C138.187 133.75 138.071 140.271 138.046 143.321C138.046 144.152 137.173 144.71 136.377 144.4C133.412 143.259 125.622 142.689 121.861 144.102C116.997 145.937 115.764 155.545 117.407 163.07C117.523 163.616 120.167 164 120.744 164H121.283C121.976 164 122.541 163.442 122.503 162.773C122.362 159.971 122.349 153.128 125.288 149.718C125.532 149.433 125.904 149.284 126.289 149.297C127.778 149.384 134.606 150.251 139.355 153.661C140.472 154.466 141.973 154.553 143.18 153.896L145.849 152.433C146.928 151.851 147.608 150.76 147.634 149.557L145.785 116.01C145.798 115.39 146.312 114.894 146.953 114.869C147.531 114.844 148.134 114.77 148.776 114.671C155.848 113.493 158.081 108.534 158.71 106.526C158.864 106.03 159.339 105.683 159.878 105.683H160.16C161.149 105.683 161.726 106.749 161.162 107.53C159.775 109.439 158.132 112.849 158.646 117.944C159.172 123.237 162.804 125.754 166.552 126.486C167.81 126.734 168.542 125.134 167.515 124.39C163.69 121.638 165.166 116.456 167.656 113.034C169.325 110.753 171.404 108.943 172.803 107.679C174.613 106.055 175.383 103.6 174.818 101.269L174.895 101.232ZM116.971 49.7584C121.078 46.0515 124.531 44.2663 126.751 43.4233C127.791 43.0266 128.792 44.0804 128.291 45.0474C126.982 47.564 124.531 51.6428 121.027 54.9405C117.6 58.1638 113.608 60.3333 111.08 61.5111C110.079 61.9822 108.988 61.0152 109.411 60.011C110.425 57.5811 112.581 53.7131 116.971 49.7584ZM63.9882 37.2246C60.3046 40.0016 56.698 41.7621 54.1438 42.791C53.0015 43.2497 51.9619 41.9728 52.6935 41.0058C54.8498 38.1668 58.3537 34.0013 62.063 31.497C65.4129 29.2283 68.1596 28.3853 69.9565 28.0878C70.9961 27.9142 71.7662 29.0052 71.2143 29.8606C70.1362 31.5466 67.9927 34.1997 63.9882 37.2246ZM95.6135 48.6674C93.714 50.5022 91.455 51.8907 89.6966 52.8081C88.6827 53.3412 87.5403 52.3494 87.9767 51.3328C89.2474 48.3575 91.4422 43.9068 93.6369 42.6671C95.498 41.6133 97.3591 41.3901 98.6682 41.4025C99.5539 41.4025 100.144 42.3075 99.7592 43.0886C99.079 44.4523 97.7955 46.5598 95.6135 48.6674Z" fill="#FEF8ED"></path> </svg> 