<svg width="58" height="52" viewBox="0 0 58 52" fill="none" xmlns="http://www.w3.org/2000/svg">
<path d="M57.9365 29.3667C57.779 28.7027 57.3926 28.229 56.9282 28.0586C56.1555 27.7752 54.2217 27.8704 54.2217 27.8704C54.2217 27.8704 56.6381 25.8838 55.3818 24.3698C54.1254 22.8557 51.5175 23.5176 49.7773 24.652C49.8668 24.5845 52.7331 22.4142 53.8558 19.893C54.0103 19.5508 54.0682 19.1743 54.0234 18.8028C54.0121 18.7077 53.994 18.607 53.9702 18.5007C53.9039 18.2209 53.781 17.9569 53.6087 17.7241C53.4365 17.4914 53.2184 17.2946 52.9672 17.1454C52.716 16.9962 52.4368 16.8976 52.146 16.8553C51.8552 16.813 51.5587 16.828 51.2739 16.8993C50.1863 17.1671 48.2569 17.7968 45.623 19.2611C45.623 19.2611 46.1067 18.1266 47.7506 17.2689C48.4779 16.8915 49.0149 16.5894 49.3536 16.3912C49.5016 16.3044 49.6229 16.1803 49.705 16.0319C49.7871 15.8836 49.827 15.7164 49.8204 15.5479C49.8166 15.1979 49.7302 14.8534 49.5679 14.5412C49.4056 14.2291 49.1717 13.9578 48.8846 13.7484C48.7205 13.6311 48.5213 13.5704 48.3181 13.5757C46.8354 13.632 45.4134 14.1659 44.2737 15.0941C42.1473 16.7963 37.3143 19.8233 34.9941 19.9173C34.9941 19.9173 39.2912 17.8876 42.1473 15.0941C45.0463 12.2565 46.1215 9.97876 46.3039 8.47248C46.3242 8.18296 46.3186 7.89226 46.2869 7.6037C46.229 6.94145 45.9742 6.31015 45.5539 5.78752C45.4054 5.61157 45.2184 5.47049 45.0066 5.37471C44.7948 5.27892 44.5637 5.23088 44.3304 5.23415C43.0584 5.26778 41.7997 5.49712 40.6009 5.9137C38.087 6.76479 35.8642 9.03472 35.8642 9.03472C35.8642 9.03472 36.8306 4.79145 32.1914 4.68299C28.1934 4.59113 25.0394 8.623 24.9408 8.74806C24.9918 8.63739 26.6209 5.18545 26.119 2.43962C25.9835 1.72802 25.5736 1.09437 24.9739 0.669339C24.3742 0.244306 23.6304 0.0603155 22.8959 0.155309C20.0565 0.500654 17.4291 1.80238 15.4663 3.83634C11.3097 8.09288 10.246 11.6876 10.246 11.6876C10.246 11.6876 8.50585 12.2554 8.02324 11.1198C7.54062 9.98431 8.02322 6.58217 11.2123 4.49928C11.2123 4.49928 7.79551 4.85012 5.12301 7.71438C3.09285 9.89024 3.86664 13.1064 3.86664 13.1064C3.86664 13.1064 1.16013 14.8086 0.966409 17.4571C0.772684 20.1055 2.41649 20.8625 4.73667 21.1458C4.73667 21.1458 2.31909 22.8856 0.716043 25.3514C0.246246 26.0776 -0.00214195 26.9195 1.62569e-05 27.7786V28.3441C-0.00144987 28.6515 0.096285 28.9517 0.279313 29.2018C0.462342 29.4519 0.721361 29.6393 1.01962 29.7375C1.92594 30.0319 3.4146 30.2842 5.4153 29.8482C5.4153 29.8482 3.7726 31.1763 3.09513 32.781C2.41766 34.3858 2.70878 36.5639 4.73894 36.9424C4.73894 36.9424 3.28885 38.0779 2.8051 40.2527C2.32135 42.4274 3.38512 44.7903 6.57536 44.8877C6.57536 44.8877 4.83522 44.0366 6.28533 42.4285C7.64481 40.9233 9.86193 41.8608 9.86193 41.8608C9.86193 41.8608 9.66819 43.564 10.9246 45.2662C12.181 46.9684 13.8248 47.1576 15.5695 47.1576C17.3141 47.1576 20.4987 45.3614 21.6588 41.5774C21.6588 41.5774 21.4073 43.5452 22.6263 45.0769C23.979 46.7802 25.8154 46.685 25.8154 46.685C25.8154 46.685 24.7527 45.7388 25.0428 44.32C25.3328 42.9011 26.0091 41.8608 27.6484 41.3882C29.2877 40.9156 31.515 41.2941 31.515 41.2941C31.515 41.2941 28.6159 38.6457 28.2296 35.3343C27.8433 32.0229 28.5695 29.2804 31.515 28.9495C33.9179 28.6805 35.8653 30.6992 36.5417 34.8617C36.5417 34.8617 40.2145 35.808 41.1866 32.9703C41.1866 32.9703 41.5728 35.5235 44.183 35.7128C43.6993 35.3343 44.9557 31.93 44.9557 31.93C45.1762 32.6322 45.6479 33.2336 46.2846 33.6244C46.1283 34.7566 45.8609 36.8638 45.7295 38.929C45.5358 41.956 45.5358 45.0769 45.5358 45.0769C45.5358 45.0769 42.2504 43.564 40.5091 44.2259C38.7678 44.8877 38.3826 48.4824 39.0589 51.1309H40.0264C40.0264 51.1309 39.639 47.4421 41.0891 46.0232C41.0891 46.0232 42.8882 45.9391 45.0339 47.586C45.157 47.6807 45.3062 47.7377 45.4624 47.7497C45.6187 47.7617 45.7751 47.7282 45.9119 47.6535L47.2714 46.8998C47.3896 46.8339 47.4884 46.7395 47.5584 46.6255C47.6285 46.5115 47.6673 46.3819 47.6712 46.249L47.9976 34.087C48.3392 34.0943 48.6807 34.0687 49.0172 34.0106C52.076 33.4971 52.4963 30.8885 52.4963 30.8885H53.8501C53.8501 30.8885 52.11 32.2166 52.4 35.145C52.69 38.0735 55.6854 38.5505 57.2329 37.9827C53.8501 37.6042 54.3712 34.9945 55.4928 33.4451C56.0592 32.6538 56.7775 32.0229 57.2578 31.5869C57.5598 31.3071 57.7814 30.9549 57.9005 30.5653C58.0196 30.1757 58.032 29.7624 57.9365 29.3667ZM38.0597 11.5061C40.5431 9.23615 42.3308 9.0469 42.3308 9.0469C42.3308 9.0469 41.3406 11.5028 39.4498 13.3034C37.559 15.1041 35.1788 15.9519 35.1788 15.9519C35.1788 15.9519 35.5764 13.776 38.0597 11.5061ZM19.8835 7.15657C17.5282 8.95282 15.267 9.52059 15.267 9.52059C15.267 9.52059 17.151 6.58882 19.2242 5.16997C21.2974 3.75113 22.7101 3.94037 22.7101 3.94037C22.7101 3.94037 22.2388 5.35811 19.8835 7.15657ZM30.7333 11.1287C29.4962 12.3394 27.7878 13.0002 27.7379 13.0201C27.764 12.9426 28.9105 9.69988 30.0558 9.04801C30.7575 8.65353 31.5812 8.51914 32.376 8.66949C32.376 8.66949 31.9897 9.89797 30.7333 11.1276V11.1287Z" fill="#161515"/>
</svg>
