<svg width="220" height="56" viewBox="0 0 220 56" fill="none" xmlns="http://www.w3.org/2000/svg">
<g clip-path="url(#clip0_504_1219)">
<path d="M121.662 37.0688C122.143 37.6841 122.859 38.1159 123.669 38.2315C124.471 38.3437 125.209 38.1431 124.231 36.5759C122.607 33.9752 123.475 32.7344 124.701 32.7106C125.927 32.6868 126.238 33.9514 127.394 37.7419C128.551 41.5324 129.693 37.5142 129.693 37.5142C129.693 37.5142 133.627 16.0493 140.016 16.3825C145.285 16.6579 138.221 34.9407 138.221 34.9407C138.221 34.9407 134.553 18.6262 126.781 20.6829C120.877 22.2433 128.803 30.9632 130.919 29.9399C132.039 29.396 125.698 24.8032 127.562 23.9295C129.427 23.0558 135.382 28.7127 136.082 35.7736C136.535 40.3358 139.111 38.0173 139.881 35.522C141.318 32.4862 149.262 12.7178 141.899 11.4667C136.67 10.5794 130.229 25.7891 128.471 32.3876C128.135 33.7678 128.595 34.322 127.88 32.0647C126.821 28.7263 123.103 29.0051 121.312 31.9049C119.921 34.1554 120.863 36.0456 121.665 37.0688H121.662Z" fill="#161515"/>
<path d="M48.0106 23.096C47.8793 22.5724 47.5582 22.1951 47.175 22.0625C46.843 21.9469 46.2482 21.9095 45.7519 21.9027C45.4637 21.8993 45.3031 21.5832 45.4892 21.3758C45.9891 20.8115 46.5511 19.9038 45.8906 19.1491C45.252 18.4148 44.1902 18.3298 43.132 18.578C42.7963 18.6562 42.5592 18.2788 42.7963 18.0442C43.4677 17.3813 44.2012 16.5246 44.6244 15.6101C44.7521 15.3382 44.8032 15.0424 44.7631 14.7467C44.7521 14.6719 44.7375 14.5903 44.7193 14.5087C44.4931 13.5772 43.4787 13.0095 42.4862 13.244C41.8951 13.3834 41.0011 13.6452 39.8371 14.1381C39.432 14.3115 39.1328 13.7574 39.5269 13.5602C39.5415 13.5534 39.5524 13.5466 39.567 13.5398C40.1691 13.2406 40.6143 13.0027 40.8952 12.8463C41.1434 12.7069 41.293 12.452 41.282 12.18C41.2638 11.772 41.1215 11.1771 40.5085 10.759C40.3735 10.6638 40.2056 10.6196 40.0341 10.623C39.4685 10.6332 38.0527 10.776 36.6844 11.823C35.8123 12.4893 34.3929 13.4106 32.9479 14.1789C32.5648 14.3829 32.2145 13.873 32.5757 13.635C33.3785 13.1047 34.2068 12.4927 34.922 11.823C37.3266 9.57932 38.2169 7.78095 38.3666 6.5911C38.3884 6.40753 38.3739 6.08797 38.352 5.90439C38.3155 5.55084 38.1841 4.96271 37.7426 4.46978C37.4945 4.19101 37.1186 4.03123 36.7282 4.03803C36.1115 4.04823 34.995 4.13662 33.6376 4.57516C32.3057 5.00691 31.0724 5.89419 30.3536 6.47892C30.1346 6.65909 29.788 6.51971 29.7807 6.24435C29.7551 5.24828 29.299 3.66068 26.6682 3.59949C24.6613 3.55529 22.9098 4.70775 21.8224 5.64603C21.5633 5.8704 21.151 5.63243 21.2532 5.31627C21.5743 4.3236 21.8625 2.99097 21.6363 1.82152C21.4137 0.652068 20.2242 -0.133231 18.9653 0.01635C17.4182 0.199926 14.9698 0.815247 12.8096 2.92638C9.84668 5.8194 8.7812 8.32488 8.54037 8.9708C8.50024 9.07618 8.40536 9.15437 8.2886 9.18157C7.87992 9.26656 6.9531 9.37535 6.64294 8.68523C6.30724 7.93393 6.53347 5.93159 8.16089 4.33379C8.41266 4.08563 8.14264 3.68788 7.796 3.80346C6.78525 4.14002 5.42785 4.78254 4.24196 5.99278C2.84078 7.424 3.05241 9.42974 3.16188 10.0587C3.18378 10.1776 3.13269 10.2966 3.02687 10.368C2.49778 10.7318 0.92875 11.9556 0.797389 13.6928C0.65873 15.5048 1.65853 16.1949 3.17648 16.494C3.45744 16.5484 3.54867 16.8816 3.32973 17.055C2.63644 17.6125 1.46514 18.646 0.589401 19.931C0.198968 20.5021 -0.00537109 21.1718 -0.00537109 21.8483V22.2937C-0.00537109 22.79 0.330328 23.2388 0.837527 23.3951C1.4177 23.5753 2.29344 23.7351 3.42825 23.6399C3.74206 23.6127 3.92815 23.9595 3.71652 24.177C3.30784 24.5952 2.83348 25.1731 2.55616 25.802C2.05626 26.9341 2.19127 28.4231 3.41731 28.9466C3.62894 29.035 3.68003 29.29 3.53042 29.4532C3.14364 29.8645 2.57076 30.6226 2.31533 31.7105C1.97234 33.1859 2.57076 34.7701 4.41711 35.2392C4.70172 35.3106 4.9389 35.0352 4.81484 34.7837C4.65429 34.4607 4.65429 34.0086 5.19797 33.4306C6.06641 32.5128 7.35813 32.7439 7.90546 32.8969C8.05142 32.9377 8.15359 33.0635 8.15359 33.2063C8.15359 33.6448 8.25941 34.6579 9.04392 35.671C10.0839 37.0172 11.4486 37.1668 12.8899 37.1668C14.1123 37.1668 16.1994 36.1469 17.389 34.0154C17.5386 33.7468 17.9619 33.8012 18.0348 34.097C18.1443 34.5525 18.3523 35.0624 18.7354 35.5248C19.3156 36.2183 20.0016 36.5345 20.527 36.6772C20.819 36.7554 21.0707 36.4733 20.9321 36.2183C20.7569 35.8953 20.6219 35.45 20.735 34.9265C20.9759 33.8046 21.5378 32.9819 22.8988 32.608C23.6469 32.404 24.5408 32.4006 25.194 32.4414C25.5005 32.4584 25.6756 32.1286 25.4786 31.911C24.7452 31.102 23.5921 29.5823 23.3768 27.8248C23.0557 25.2071 23.6578 23.0416 26.0989 22.7798C28.0474 22.5724 29.6311 24.0955 30.2258 27.24C30.2514 27.3726 30.3645 27.478 30.5068 27.5018C31.1417 27.6072 32.8713 27.7636 33.758 26.6111C33.9112 26.4106 34.2433 26.4445 34.3528 26.6689C34.6082 27.1823 35.1117 27.8214 36.0714 28.0491C36.2867 28.1001 36.491 27.9506 36.4983 27.7432C36.5202 27.2672 36.761 26.4751 36.9581 25.887C37.0457 25.6287 37.4105 25.5811 37.5747 25.802C37.7134 25.989 37.5565 25.87 37.8083 26.0434C37.9104 26.1148 37.9688 26.2304 37.9506 26.3494C37.8192 27.2774 37.7937 28.7461 37.6915 30.2623C37.5747 32.013 37.5419 33.8012 37.5346 34.6375C37.5346 34.8653 37.2865 35.0182 37.0602 34.9333C36.2173 34.6205 34.0025 34.4641 32.9333 34.8517C31.5504 35.3548 31.2001 37.9895 31.6672 40.053C31.7 40.2026 32.4517 40.308 32.6159 40.308H32.7691C32.9662 40.308 33.1267 40.155 33.1158 39.9714C33.0756 39.2031 33.072 37.3265 33.9076 36.3917C33.9769 36.3135 34.0827 36.2727 34.1922 36.2761C34.6155 36.2999 36.5567 36.5379 37.9068 37.4727C38.2242 37.6937 38.6512 37.7175 38.9942 37.5373L39.7531 37.1362C40.0596 36.9764 40.253 36.6772 40.2603 36.3475L39.7349 27.1483C39.7385 26.9783 39.8845 26.8423 40.0669 26.8355C40.2311 26.8287 40.4026 26.8083 40.5851 26.7811C42.5956 26.4581 43.2305 25.0983 43.4093 24.5476C43.4531 24.4116 43.5881 24.3164 43.7414 24.3164H43.8217C44.1026 24.3164 44.2668 24.6088 44.1063 24.823C43.7122 25.3465 43.2451 26.2814 43.3911 27.6786C43.5407 29.1302 44.5733 29.8203 45.6388 30.0209C45.9964 30.0889 46.2044 29.6503 45.9125 29.4464C44.8251 28.6917 45.2447 27.2706 45.9526 26.3324C46.427 25.7068 47.0181 25.2105 47.4158 24.8638C47.9303 24.4184 48.1493 23.7453 47.9887 23.1062L48.0106 23.096ZM31.5431 8.981C32.7107 7.96453 33.6923 7.47499 34.3236 7.24382C34.6191 7.13503 34.9037 7.424 34.7614 7.68916C34.3892 8.37927 33.6923 9.49773 32.6962 10.402C31.7219 11.2859 30.5871 11.8808 29.8682 12.2038C29.5836 12.333 29.2735 12.0678 29.3939 11.7924C29.6821 11.1261 30.2952 10.0655 31.5431 8.981ZM16.4804 5.54404C15.4332 6.30554 14.4078 6.78828 13.6817 7.07044C13.3569 7.19623 13.0614 6.84607 13.2694 6.58091C13.8824 5.80241 14.8785 4.66015 15.9331 3.97344C16.8854 3.35132 17.6663 3.12015 18.1771 3.03856C18.4727 2.99097 18.6916 3.29013 18.5347 3.5247C18.2282 3.98704 17.6189 4.71455 16.4804 5.54404ZM25.4713 8.68184C24.9313 9.18497 24.2891 9.56572 23.7892 9.81729C23.5009 9.96347 23.1761 9.69151 23.3002 9.41274C23.6615 8.59685 24.2854 7.3764 24.9094 7.03645C25.4385 6.74748 25.9676 6.68629 26.3398 6.68969C26.5915 6.68969 26.7594 6.93786 26.6499 7.15203C26.4565 7.52598 26.0916 8.10391 25.4713 8.68184Z" fill="#161515"/>
<path d="M152.623 17.4635C150.12 17.3038 147.865 19.2313 148.711 22.2875C149.058 23.542 149.678 24.9222 150.496 26.1324C152.349 28.8759 152.838 29.7394 152.612 32.0511C152.386 34.3628 150.2 37.5618 147.084 37.6671C144.117 37.7657 143.085 34.8421 143.085 33.0369C143.085 31.004 144.026 27.7744 148.379 25.4729C148.959 26.3024 149.58 27.5908 149.908 28.5427C149.251 28.3591 147.219 28.8045 146.143 29.9671C145.124 31.0686 144.968 35.6682 146.847 35.6682C147.901 35.6682 149.317 35.4506 150.142 33.1457C150.762 31.4086 149.591 28.9711 149.343 28.5903C148.376 27.1149 147.376 25.3369 147.19 24.9902C145.581 21.9646 146.146 18.8574 148.708 16.4743C150.474 14.8323 152.572 14.5025 155.024 15.3932C155.024 15.3932 157.377 16.8686 157.377 20.7067C157.377 22.4065 156.378 23.9397 154.378 23.9397C152.612 23.9397 151.671 21.8558 151.671 19.7752C151.671 16.2669 154.367 15.5632 156.79 15.4442C156.79 15.4442 160.319 15.8828 160.319 16.6511C160.319 17.4194 158.914 16.9468 158.319 16.8686C156.144 16.5933 153.262 16.7054 153.262 19.4455C153.262 20.8155 153.557 22.0768 154.499 22.0768C155.794 22.0768 155.911 17.4669 152.623 17.4669V17.4635Z" fill="#161515"/>
<path d="M210.243 34.7911C209.564 35.5186 208.962 36.2801 208.232 36.9091C207.743 37.3272 206.93 37.9799 206.444 37.0892C206.156 36.5589 206.743 35.3521 207.641 34.7877C209.44 33.1117 209.287 33.1559 208.528 30.9088C207.265 27.1727 206.798 23.4162 207.802 19.4625C208.331 17.3718 210.626 14.8595 212.359 14.8629C213.731 14.8629 214.735 16.0425 215.373 17.2358C216.986 20.2376 216.154 25.6021 214.381 28.1654C216.818 27.1999 220.04 30.3173 219.996 32.8126C220.077 35.0087 217.942 37.4836 215.8 37.9867C213.33 38.568 211.998 37.8133 210.243 34.7979V34.7911ZM210.713 30.8306C210.761 30.9734 210.962 31.0074 211.06 30.8884C214.815 26.18 213.636 18.8948 212.626 18.582C211.567 18.2523 209.871 20.8461 209.685 22.8553C209.451 25.3777 209.907 28.332 210.713 30.8306ZM217.424 32.9418C217.424 31.1978 216.931 30.6709 215.326 30.6981C213.83 30.7252 212.48 32.1259 212.469 33.6659C212.461 35.0053 213.399 35.8552 214.899 35.8586C216.72 35.862 217.424 35.0529 217.424 32.9418Z" fill="#161515"/>
<path d="M174.907 36.6439C174.049 33.3497 174.527 30.1677 175.524 26.8429C176.337 24.1165 173.477 23.7425 171.342 24.827C167.985 26.5302 163.869 32.1191 164.774 36.5215C165.037 37.7997 167.131 38.3233 168.222 37.4904C169.266 36.6915 171.163 32.7786 172.608 33.4993C172.71 33.5503 172.878 31.7417 172.864 31.7349C170.809 30.3649 168.339 36.8309 167.044 35.2976C165.252 33.1763 169.959 27.2475 173.429 26.0168C173.612 25.9523 173.783 26.1358 173.685 26.2922C170.66 31.14 172.064 40.1522 174.659 41.1755C175.907 41.6684 177.06 41.1279 177.695 40.5194C178.33 39.9109 178.581 38.3641 177.859 38.6224C176.129 39.2445 175.421 38.6224 174.907 36.6439Z" fill="#161515"/>
<path d="M201.285 37.3714C196.815 37.3714 195.669 32.4964 197.625 28.7059C198.453 27.1013 199.442 25.5477 201.051 24.9324C204.218 23.7222 205.784 24.3681 206.291 27.5603C206.886 31.2964 204.142 37.3714 201.285 37.3714ZM203.284 25.8333C201.518 25.6157 199.971 27.2509 199.519 28.1348C198.424 30.2697 198.315 34.1622 200.46 34.1622C203.613 34.1622 204.31 30.7423 204.598 29.1343C204.802 28.0022 204.324 25.9625 203.284 25.8333Z" fill="#161515"/>
<path d="M152.966 52.6626C152.991 52.7646 153.006 52.8632 153.013 52.9686C153.05 53.5057 153.312 55.4163 155.184 55.0967C157.48 54.7024 156.64 51.4796 156.002 49.0081C154.984 45.4963 153.626 38.738 155.44 33.7406C157.078 29.2328 159.355 26.9585 161.366 26.7579C163.347 26.5608 161.979 34.8761 151.601 38.2043C151.408 38.2655 151.207 38.2859 151.006 38.2927C150.138 38.3335 148.135 41.0259 151.357 39.9312C159.84 37.0484 167.598 29.3348 163.778 24.5652C163.154 23.7867 162.132 23.3992 161.19 23.8139C157.056 25.6361 153.276 32.4352 152.422 41.1075C152.046 44.9524 152.163 49.4466 152.966 52.6626Z" fill="#161515"/>
<path d="M178.337 32.9961C178.337 32.9961 178.016 30.5145 177.041 31.0244C175.159 32.0103 176.574 37.4598 179.278 37.4224C182.453 37.3816 182.336 29.5966 182.336 29.5966C182.522 28.5257 182.329 27.1217 182.865 27.1319C183.868 27.1455 188.149 35.2874 187.572 38.5306C187.193 40.6554 186.109 40.499 186.043 38.4218C185.926 34.6415 190.604 26.4656 192.381 26.1494C194.571 25.7619 192.447 30.63 192.454 34.3118C192.458 36.8037 193.633 38.0717 194.925 38.0377C195.866 38.0139 196.216 36.5929 195.629 33.8732C194.687 29.4878 195.158 26.7953 195.158 24.4462C195.158 22.2535 192.272 23.1578 190.63 25.048C187.16 29.0493 186.452 29.7054 184.219 36.6133C183.401 39.1358 184.168 43.1336 186.127 43.1336C189.809 43.1336 190.181 37.6127 189.583 35.386C188.984 33.1593 185.485 26.5268 185.485 26.5268C185.485 26.5268 183.237 21.7436 181.354 24.7964C180.446 26.2718 181.154 34.0058 179.38 34.5667C178.1 34.9713 178.337 32.9961 178.337 32.9961Z" fill="#161515"/>
<path d="M53.0187 21.5226C50.8038 19.4591 51.9605 16.0425 53.9601 14.8357C55.3029 14.0266 56.5472 14.2102 55.6021 15.2301C54.3651 16.5661 54.3542 17.6471 54.6643 19.0002C55.0365 20.6218 60.1049 20.6931 64.2829 15.4612C66.7495 12.3744 63.1225 11.035 60.477 14.9241C57.2697 19.6393 55.4671 34.5498 60.1924 34.5498C63.2502 34.5498 67.3698 23.8207 68.428 20.9719C68.9133 19.6631 70.7378 13.0373 71.9565 13.7376C73.4854 14.6147 71.6026 19.6563 70.7816 21.849C69.6139 24.963 69.9423 33.8359 71.6062 35.0019C72.263 35.4642 72.6644 35.2195 73.2519 34.7843C74.2444 34.0432 75.4887 36.1 71.9565 38.0717C68.9462 39.7545 67.6034 31.055 68.1325 27.0571C68.2784 25.9625 65.1331 39.061 58.4847 38.5647C52.4932 38.1193 54.2009 21.5906 58.368 14.6691C61.3674 9.68197 65.8993 8.6417 66.8991 9.35221C68.2237 10.2939 68.3441 16.0188 63.0751 19.6019C57.9994 23.0524 54.252 22.6717 53.015 21.5192L53.0187 21.5226Z" fill="#161515"/>
<path d="M81.2758 37.7963C81.9801 39.3295 82.334 39.9891 83.6294 40.2236C85.1291 40.4956 84.6876 38.8944 84.1001 36.9227C83.5126 34.9509 83.0456 29.6408 84.2205 26.2106C85.3955 22.7805 85.4283 21.1759 84.2935 21.3765C83.1587 21.577 80.141 28.0124 79.6521 28.9575C79.1595 29.906 75.7988 36.8955 76.0688 34.0024C76.3389 31.1094 76.5724 29.5762 74.81 30.783C73.0439 31.9899 72.8104 37.5278 74.81 37.8813C76.8096 38.2349 78.8457 36.3209 80.5169 31.6023C83.3995 23.4706 79.9914 34.6177 81.2831 37.7963H81.2758Z" fill="#161515"/>
<path d="M90.7154 21.5192C90.7373 20.8665 90.1243 20.343 89.4383 20.479C88.88 20.5911 88.2159 21.0569 87.6394 22.3793C86.3331 25.3709 85.0377 29.1002 85.3917 32.9349C85.7456 36.7697 86.2163 38.5238 87.9788 38.415C89.7412 38.3063 97.9987 32.6188 93.8608 26.3568C91.978 23.508 86.9206 29.5354 86.5083 33.5367C86.4061 34.5191 87.0629 38.8978 87.8511 34.7095C88.683 30.3037 90.8614 28.8215 91.9196 28.8215C92.9778 28.8215 92.1239 32.748 90.9636 33.965C89.8032 35.1821 87.3074 37.7521 87.6832 32.3298C87.9788 28.111 88.2488 26.6526 89.4383 24.776C90.3725 23.304 90.679 22.4133 90.7118 21.5124L90.7154 21.5192Z" fill="#161515"/>
<path d="M108.041 35.862C106.402 35.9198 104.06 31.8165 103.899 23.6643C103.735 15.5088 101.035 15.9677 99.035 15.9575C97.0354 15.9473 93.0034 25.1024 97.0391 28.2537C100.794 31.1876 101.502 27.8934 102.264 26.7443C103.209 25.3233 102.363 19.0273 101.615 22.6785C100.794 26.6899 99.6152 27.2441 98.0279 25.8741C96.6632 24.6978 97.7324 18.6908 99.3233 18.0891C101.082 17.4227 101.56 20.3906 101.56 24.555C101.56 28.7195 99.7137 36.1067 97.5973 37.368C96.4443 38.0547 94.9884 37.6127 95.4664 35.7124C95.9626 33.744 94.5979 33.4109 93.6894 35.0495C92.1897 37.7589 94.317 40.0026 96.1743 40.0128C99.6407 40.0298 101.502 38.3573 102.195 33.9038C102.582 31.4153 102.326 29.8243 102.823 31.6295C103.322 33.4347 104.253 38.806 107.902 38.9148C111.551 39.0236 113.35 32.5474 111.737 32.4488C109.139 32.2856 110.525 35.777 108.037 35.8688L108.041 35.862Z" fill="#161515"/>
</g>
<defs>
<clipPath id="clip0_504_1219">
<rect width="220" height="55.1307" fill="white"/>
</clipPath>
</defs>
</svg>
