<svg width="48" height="49" viewBox="0 0 48 49" fill="none" xmlns="http://www.w3.org/2000/svg">
<g clip-path="url(#clip0_512_775)">
<path d="M47.993 27.4429C47.8617 26.9194 47.5406 26.5421 47.1574 26.4095C46.8254 26.2939 46.2306 26.2565 45.7344 26.2497C45.4461 26.2463 45.2855 25.9301 45.4716 25.7228C45.9715 25.1584 46.5335 24.2507 45.873 23.496C45.2345 22.7617 44.1726 22.6767 43.1144 22.9249C42.7788 23.0031 42.5416 22.6258 42.7788 22.3912C43.4501 21.7283 44.1836 20.8716 44.6069 19.9571C44.7346 19.6851 44.7857 19.3894 44.7455 19.0936C44.7346 19.0188 44.72 18.9372 44.7017 18.8556C44.4755 17.9242 43.4611 17.3564 42.4686 17.591C41.8775 17.7304 40.9835 17.9922 39.8195 18.4851C39.4145 18.6585 39.1152 18.1043 39.5093 17.9072C39.5239 17.9004 39.5349 17.8936 39.5495 17.8868C40.1515 17.5876 40.5967 17.3496 40.8777 17.1933C41.1258 17.0539 41.2754 16.7989 41.2645 16.5269C41.2462 16.119 41.1039 15.5241 40.4909 15.1059C40.3559 15.0107 40.188 14.9665 40.0165 14.9699C39.4509 14.9801 38.0352 15.1229 36.6668 16.17C35.7947 16.8363 34.3753 17.7576 32.9303 18.5259C32.5472 18.7299 32.1969 18.2199 32.5582 17.982C33.3609 17.4516 34.1892 16.8397 34.9044 16.17C37.309 13.9263 38.1994 12.1279 38.349 10.9381C38.3709 10.7545 38.3563 10.4349 38.3344 10.2513C38.2979 9.89779 38.1665 9.30967 37.725 8.81673C37.4769 8.53797 37.1011 8.37819 36.7106 8.38499C36.094 8.39519 34.9774 8.48357 33.62 8.92212C32.2881 9.35386 31.0548 10.2411 30.336 10.8259C30.117 11.006 29.7704 10.8667 29.7631 10.5913C29.7376 9.59523 29.2814 8.00764 26.6506 7.94644C24.6437 7.90225 22.8922 9.0547 21.8048 9.99298C21.5457 10.2174 21.1334 9.97938 21.2356 9.66322C21.5567 8.67055 21.845 7.33792 21.6187 6.16847C21.3961 4.99902 20.2066 4.21372 18.9477 4.3633C17.4006 4.54688 14.9522 5.1622 12.792 7.27333C9.8291 10.1664 8.76362 12.6718 8.52279 13.3178C8.48266 13.4231 8.38778 13.5013 8.27102 13.5285C7.86234 13.6135 6.93552 13.7223 6.62536 13.0322C6.28966 12.2809 6.5159 10.2785 8.14331 8.68075C8.39508 8.43258 8.12506 8.03483 7.77842 8.15042C6.76767 8.48697 5.41028 9.12949 4.22438 10.3397C2.8232 11.771 3.03484 13.7767 3.1443 14.4056C3.1662 14.5246 3.11511 14.6436 3.00929 14.715C2.4802 15.0787 0.911171 16.3026 0.779811 18.0397C0.641152 19.8517 1.64095 20.5418 3.1589 20.841C3.43987 20.8954 3.53109 21.2285 3.31215 21.4019C2.61886 21.9594 1.44756 22.9929 0.571823 24.2779C0.18139 24.8491 -0.0229492 25.5188 -0.0229492 26.1953V26.6406C-0.0229492 27.137 0.31275 27.5857 0.819949 27.7421C1.40013 27.9223 2.27586 28.0821 3.41067 27.9869C3.72448 27.9597 3.91057 28.3064 3.69894 28.524C3.29026 28.9421 2.8159 29.5201 2.53858 30.149C2.03868 31.281 2.17369 32.7701 3.39973 33.2936C3.61136 33.382 3.66245 33.6369 3.51284 33.8001C3.12606 34.2115 2.55318 34.9696 2.29776 36.0574C1.95476 37.5328 2.55318 39.117 4.39953 39.5862C4.68414 39.6576 4.92132 39.3822 4.79726 39.1306C4.63671 38.8077 4.63671 38.3555 5.18039 37.7776C6.04884 36.8597 7.34055 37.0909 7.88789 37.2439C8.03384 37.2847 8.13601 37.4105 8.13601 37.5532C8.13601 37.9918 8.24183 39.0048 9.02635 40.0179C10.0663 41.3641 11.431 41.5137 12.8723 41.5137C14.0947 41.5137 16.1819 40.4939 17.3714 38.3623C17.521 38.0938 17.9443 38.1482 18.0173 38.4439C18.1267 38.8995 18.3347 39.4094 18.7178 39.8717C19.298 40.5652 19.984 40.8814 20.5095 41.0242C20.8014 41.1024 21.0531 40.8202 20.9145 40.5652C20.7393 40.2423 20.6043 39.7969 20.7174 39.2734C20.9583 38.1516 21.5202 37.3289 22.8813 36.9549C23.6293 36.7509 24.5233 36.7475 25.1764 36.7883C25.4829 36.8053 25.6581 36.4756 25.461 36.258C24.7276 35.4489 23.5745 33.9293 23.3593 32.1717C23.0382 29.5541 23.6402 27.3885 26.0813 27.1268C28.0299 26.9194 29.6135 28.4424 30.2083 31.587C30.2338 31.7196 30.3469 31.825 30.4892 31.8488C31.1241 31.9542 32.8537 32.1105 33.7404 30.9581C33.8937 30.7575 34.2257 30.7915 34.3352 31.0159C34.5906 31.5292 35.0942 32.1683 36.0538 32.3961C36.2691 32.4471 36.4734 32.2975 36.4807 32.0901C36.5026 31.6142 36.7435 30.8221 36.9405 30.234C37.0281 29.9756 37.393 29.928 37.5572 30.149C37.6958 30.336 37.5389 30.217 37.7907 30.3904C37.8929 30.4617 37.9512 30.5773 37.933 30.6963C37.8016 31.6244 37.7761 33.093 37.6739 34.6092C37.5572 36.36 37.5243 38.1482 37.517 38.9845C37.517 39.2122 37.2689 39.3652 37.0427 39.2802C36.1998 38.9675 33.9849 38.8111 32.9158 39.1986C31.5328 39.7018 31.1825 42.3364 31.6496 44.4C31.6824 44.5495 32.4341 44.6549 32.5983 44.6549H32.7515C32.9486 44.6549 33.1091 44.5019 33.0982 44.3184C33.0581 43.5501 33.0544 41.6735 33.89 40.7386C33.9593 40.6604 34.0652 40.6196 34.1746 40.623C34.5979 40.6468 36.5391 40.8848 37.8892 41.8197C38.2067 42.0407 38.6336 42.0645 38.9766 41.8843L39.7356 41.4831C40.0421 41.3233 40.2355 41.0242 40.2428 40.6944L39.7173 31.4952C39.721 31.3252 39.8669 31.1893 40.0494 31.1825C40.2136 31.1757 40.3851 31.1553 40.5675 31.1281C42.5781 30.8051 43.213 29.4453 43.3918 28.8945C43.4356 28.7586 43.5706 28.6634 43.7238 28.6634H43.8041C44.0851 28.6634 44.2493 28.9557 44.0887 29.1699C43.6946 29.6934 43.2276 30.6283 43.3735 32.0255C43.5231 33.4772 44.5558 34.1673 45.6213 34.3678C45.9788 34.4358 46.1868 33.9973 45.8949 33.7933C44.8075 33.0386 45.2272 31.6176 45.9351 30.6793C46.4094 30.0538 47.0005 29.5575 47.3983 29.2107C47.9128 28.7654 48.1317 28.0923 47.9711 27.4531L47.993 27.4429ZM31.5255 13.328C32.6932 12.3115 33.6747 11.8219 34.306 11.5908C34.6015 11.482 34.8862 11.771 34.7439 12.0361C34.3717 12.7262 33.6747 13.8447 32.6786 14.749C31.7043 15.6329 30.5695 16.2278 29.8507 16.5507C29.5661 16.6799 29.2559 16.4148 29.3763 16.1394C29.6646 15.4731 30.2776 14.4124 31.5255 13.328ZM16.4628 9.89099C15.4156 10.6525 14.3902 11.1352 13.6641 11.4174C13.3394 11.5432 13.0438 11.193 13.2518 10.9279C13.8648 10.1494 14.8609 9.00711 15.9155 8.32039C16.8678 7.69828 17.6487 7.4671 18.1596 7.38552C18.4551 7.33792 18.6741 7.63708 18.5172 7.87165C18.2106 8.33399 17.6013 9.0615 16.4628 9.89099ZM25.4537 13.0288C24.9137 13.5319 24.2715 13.9127 23.7716 14.1642C23.4833 14.3104 23.1586 14.0385 23.2826 13.7597C23.6439 12.9438 24.2678 11.7234 24.8918 11.3834C25.4209 11.0944 25.95 11.0332 26.3222 11.0366C26.5739 11.0366 26.7418 11.2848 26.6323 11.499C26.4389 11.8729 26.074 12.4509 25.4537 13.0288Z" fill="#161515"/>
</g>
<defs>
<clipPath id="clip0_512_775">
<rect width="48" height="48" fill="white" transform="translate(0 0.5)"/>
</clipPath>
</defs>
</svg>
