<svg width="14" height="14" viewBox="0 0 14 14" fill="none" xmlns="http://www.w3.org/2000/svg">
<path d="M13.9639 11.3786H12.0746L12.0829 7.89006C12.0884 7.4647 12.0994 7.02275 12.116 6.56424C12.1326 6.09468 12.1547 5.62511 12.1823 5.15555C12.2154 4.68046 12.2486 4.22195 12.2817 3.78001C12.3094 3.33254 12.3397 2.90993 12.3729 2.51219L12.6546 2.92651C12.4502 3.1751 12.2458 3.42922 12.0414 3.68886C11.837 3.93745 11.6271 4.18604 11.4117 4.43463C11.1962 4.67218 10.9725 4.90696 10.7405 5.13898L2.23861 13.6408L0.896212 12.2984L9.39807 3.79658C9.63008 3.56456 9.86763 3.34359 10.1107 3.13367C10.3538 2.9127 10.5996 2.70001 10.8482 2.49561C11.1023 2.28569 11.3564 2.08129 11.6105 1.88242L12.0249 2.16416C11.5001 2.20283 10.9283 2.24426 10.3096 2.28845C9.69085 2.33265 9.06661 2.37132 8.43684 2.40446C7.8126 2.43208 7.21598 2.44866 6.64698 2.45418L3.1584 2.46247V0.573167H13.9639V11.3786Z" fill="#161515"/>
</svg>
